<?xml version="1.0" standalone="no"?>
<!DOCTYPE svg PUBLIC "-//W3C//DTD SVG 20010904//EN"
 "http://www.w3.org/TR/2001/REC-SVG-20010904/DTD/svg10.dtd">
<svg version="1.0" xmlns="http://www.w3.org/2000/svg"
 width="700.000000pt" height="700.000000pt" viewBox="0 0 700.000000 700.000000"
 preserveAspectRatio="xMidYMid meet">
<metadata>
Created by potrace 1.11, written by Peter Selinger 2001-2013
</metadata>
<g transform="translate(0.000000,700.000000) scale(0.100000,-0.100000)"
fill="#000000" stroke="none">
<path d="M3328 6895 c-2 -2 -61 -6 -132 -9 -71 -4 -132 -9 -135 -11 -3 -1 -40
-6 -81 -10 -41 -4 -77 -8 -80 -10 -3 -2 -26 -6 -50 -9 -25 -3 -56 -8 -70 -11
-14 -2 -38 -7 -55 -10 -44 -8 -158 -34 -255 -57 -80 -19 -392 -118 -435 -138
-11 -5 -63 -27 -115 -49 -287 -120 -581 -294 -830 -492 -238 -189 -523 -508
-674 -756 -184 -302 -316 -663 -352 -958 -3 -27 -8 -61 -11 -75 -9 -45 -11
-424 -2 -490 4 -36 11 -90 15 -120 3 -30 8 -57 9 -60 2 -3 6 -26 10 -50 4 -25
13 -72 21 -105 8 -33 17 -70 19 -81 10 -43 74 -231 108 -315 76 -185 200 -405
316 -560 l57 -75 -86 -91 c-194 -202 -329 -472 -365 -728 -4 -27 -9 -59 -11
-70 -6 -28 -5 -241 1 -295 6 -57 23 -145 36 -186 5 -17 11 -40 14 -50 9 -44
48 -143 85 -217 136 -269 345 -479 609 -611 84 -43 284 -111 351 -120 25 -3
70 -10 100 -15 91 -15 314 -6 420 17 271 58 493 175 681 357 55 54 56 55 75
35 85 -87 263 -219 363 -270 121 -61 308 -119 441 -137 109 -15 323 -9 435 12
156 30 349 108 475 191 96 64 127 90 211 170 l56 53 45 -42 c90 -84 117 -106
194 -159 129 -88 337 -179 468 -204 199 -38 395 -40 564 -5 573 119 998 575
1080 1156 4 28 7 118 6 200 0 118 -5 171 -23 250 -60 266 -179 490 -357 672
l-83 86 62 86 c152 210 244 378 332 606 63 163 122 383 140 520 4 28 9 53 11
56 7 13 18 214 18 344 0 251 -29 435 -108 697 -57 188 -141 373 -249 553 -377
625 -1010 1114 -1787 1378 -148 51 -454 131 -540 142 -30 4 -58 9 -61 11 -3 2
-24 6 -45 9 -21 2 -52 7 -69 9 -66 9 -195 25 -272 32 -59 6 -490 13 -495 9z"/>
</g>
</svg>
